<?xml version="1.0" encoding="iso-8859-1"?>
<!-- Generator: Adobe Illustrator 19.0.0, SVG Export Plug-In . SVG Version: 6.00 Build 0)  -->
<svg version="1.1" id="Capa_1" xmlns="http://www.w3.org/2000/svg" xmlns:xlink="http://www.w3.org/1999/xlink" x="0px" y="0px"
	 viewBox="0 0 512 512" style="enable-background:new 0 0 512 512;" xml:space="preserve">
<polygon style="fill:#FEDBAB;" points="407.667,238 484,238 256,10 28,238 105.667,238 "/>
<polygon style="fill:#FEB756;" points="326,502 326,310 412,310 256,154 100,310 186,310 186,502 "/>
<path d="M502,512H326c-5.523,0-10-4.477-10-10V310c0-5.523,4.477-10,10-10h61.858L256,168.142L124.142,300H186
	c5.523,0,10,4.477,10,10v192c0,5.523-4.477,10-10,10H10c-5.523,0-10-4.477-10-10s4.477-10,10-10h166V320h-76
	c-4.044,0-7.691-2.437-9.239-6.173s-0.692-8.038,2.167-10.898l156-156c3.905-3.905,10.237-3.905,14.143,0l156,156
	c2.86,2.86,3.715,7.162,2.167,10.898C419.691,317.564,416.045,320,412,320h-76v172h166c5.523,0,10,4.477,10,10S507.523,512,502,512z
	"/>
<path d="M484,248h-86.333c-5.523,0-10-4.477-10-10s4.477-10,10-10h62.191L256,24.142L52.142,228h63.524c5.523,0,10,4.477,10,10
	s-4.477,10-10,10H28c-4.044,0-7.691-2.437-9.239-6.173s-0.692-8.038,2.167-10.898l228-228c3.905-3.905,10.237-3.905,14.143,0
	l228,228c2.86,2.86,3.715,7.161,2.167,10.898S488.045,248,484,248z"/>
<path d="M290,494.329c-5.523,0-10-4.477-10-10V376.988c0-5.523,4.477-10,10-10s10,4.477,10,10v107.341
	C300,489.852,295.523,494.329,290,494.329z"/>
<path d="M290,354.46c-5.523,0-10-4.477-10-10v-0.13c0-5.523,4.477-10,10-10s10,4.477,10,10v0.13
	C300,349.983,295.523,354.46,290,354.46z"/>
<g>
</g>
<g>
</g>
<g>
</g>
<g>
</g>
<g>
</g>
<g>
</g>
<g>
</g>
<g>
</g>
<g>
</g>
<g>
</g>
<g>
</g>
<g>
</g>
<g>
</g>
<g>
</g>
<g>
</g>
</svg>
